<svg width="25" height="25" viewBox="0 0 25 25" fill="none" xmlns="http://www.w3.org/2000/svg">
<path d="M19.8999 6.20313C20.0066 6.09433 20.1338 6.00789 20.2743 5.94888C20.4148 5.88988 20.5656 5.85948 20.7179 5.85948C20.8703 5.85948 21.0211 5.88988 21.1615 5.94888C21.302 6.00789 21.4292 6.09433 21.5359 6.20313C21.9828 6.65469 21.989 7.38438 21.5515 7.84375L12.3124 18.7656C12.2075 18.8808 12.0802 18.9734 11.9383 19.0377C11.7964 19.102 11.6429 19.1367 11.4871 19.1396C11.3314 19.1425 11.1766 19.1136 11.0324 19.0547C10.8882 18.9958 10.7575 18.908 10.6484 18.7969L5.0265 13.1C4.80968 12.8789 4.68823 12.5816 4.68823 12.2719C4.68823 11.9622 4.80968 11.6649 5.0265 11.4438C5.13314 11.335 5.26041 11.2485 5.40086 11.1895C5.54131 11.1305 5.69212 11.1001 5.84447 11.1001C5.99681 11.1001 6.14763 11.1305 6.28808 11.1895C6.42853 11.2485 6.5558 11.335 6.66244 11.4438L11.4312 16.2766L19.8687 6.2375C19.8784 6.22543 19.8888 6.21395 19.8999 6.20313Z" fill="#74C69D"/>
</svg>
